<?xml version="1.0" standalone="no"?>
<!DOCTYPE svg PUBLIC "-//W3C//DTD SVG 20010904//EN"
 "http://www.w3.org/TR/2001/REC-SVG-20010904/DTD/svg10.dtd">
<svg version="1.0" xmlns="http://www.w3.org/2000/svg"
 width="1547.000000pt" height="766.000000pt" viewBox="0 0 1547.000000 766.000000"
 preserveAspectRatio="xMidYMid meet">

<g transform="translate(0.000000,766.000000) scale(0.100000,-0.100000)"
fill="#000000" stroke="none">
<path d="M4980 3830 l0 -2760 2755 0 2755 0 0 2760 0 2760 -1522 -2 -1523 -3
-20 -42 -20 -41 -85 24 c-47 14 -114 33 -149 44 -62 19 -97 20 -1128 20
l-1063 0 0 -2760z m4200 1994 c25 -4 106 -10 180 -15 l135 -7 -155 4 c-170 4
-240 12 -240 26 0 5 8 7 18 4 9 -2 37 -8 62 -12z m280 -107 c-4 -5 -69 -11
-143 -13 -106 -4 -136 -2 -140 9 -4 10 24 13 144 12 81 0 144 -4 139 -8z m38
-98 c24 -51 113 -149 135 -149 7 -1 -1 -8 -18 -17 -27 -15 -28 -17 -10 -23 11
-4 27 -5 35 -3 13 4 13 3 0 -5 -8 -5 -30 -7 -48 -5 -25 4 -30 8 -22 18 7 9 8
15 1 20 -12 7 -190 -34 -205 -47 -16 -13 42 -9 106 8 33 8 62 13 64 11 3 -2
-27 -13 -66 -23 -43 -11 -65 -21 -57 -26 8 -5 5 -8 -9 -8 -12 0 -27 -6 -34
-14 -6 -8 -19 -12 -27 -9 -14 6 -14 8 3 14 18 8 18 8 -2 14 -16 5 -37 38 -73
116 -52 110 -66 164 -36 139 15 -12 35 -6 35 11 0 5 -16 9 -35 9 -21 0 -35 5
-35 13 0 9 33 11 137 10 l137 -2 24 -52z m192 -179 c0 -5 -7 -10 -15 -10 -8 0
-15 5 -15 10 0 6 7 10 15 10 8 0 15 -4 15 -10z m-173 -46 c-3 -3 -12 -4 -19
-1 -8 3 -5 6 6 6 11 1 17 -2 13 -5z m238 -23 c-34 -30 -385 -149 -405 -136
-17 10 -11 25 10 25 26 0 203 52 305 89 87 32 105 36 90 22z m-3355 -206 c-7
-8 -22 -15 -33 -15 -20 0 -20 0 -1 15 27 20 51 20 34 0z m348 -61 c32 -37 29
-77 -10 -109 -26 -22 -39 -26 -67 -21 -40 6 -81 46 -81 77 0 78 105 114 158
53z m390 4 c45 -43 20 -118 -44 -134 -35 -9 -92 19 -104 51 -14 37 6 84 44
101 37 16 73 10 104 -18z m1677 20 c26 -12 29 -36 4 -29 -46 13 -61 12 -79 -4
-25 -23 -25 -57 0 -80 15 -14 29 -16 60 -11 45 7 53 -5 15 -22 -39 -18 -60
-15 -94 14 -39 32 -42 80 -8 111 37 34 62 39 102 21z m159 2 c40 -15 32 -31
-12 -24 -46 7 -72 -13 -72 -56 0 -37 29 -54 76 -45 40 7 46 -10 10 -26 -50
-23 -116 17 -116 70 0 45 10 62 44 77 38 16 39 16 70 4z m320 0 c39 -14 31
-27 -16 -26 -56 1 -58 -23 -4 -38 43 -12 63 -34 53 -60 -9 -24 -57 -39 -91
-29 -47 13 -42 29 10 29 61 -1 69 19 15 35 -23 7 -46 18 -52 25 -15 18 -1 54
24 64 29 12 32 12 61 0z m-3150 -51 l29 -52 31 51 c46 76 61 70 59 -25 -1 -57
-5 -78 -14 -78 -10 0 -13 14 -11 50 2 49 2 50 -15 28 -10 -12 -25 -32 -34 -45
l-16 -22 -29 44 -29 44 -3 -53 c-5 -83 -26 -60 -30 32 -3 68 -1 77 15 77 11 0
29 -19 47 -51z m286 41 c0 -5 -20 -10 -45 -10 -38 0 -45 -3 -45 -20 0 -17 7
-20 41 -20 52 0 48 -24 -4 -28 -29 -3 -37 -7 -37 -23 0 -16 7 -19 46 -19 69 0
52 -24 -19 -28 l-57 -3 0 81 0 80 60 0 c33 0 60 -4 60 -10z m150 0 c0 -5 -11
-10 -25 -10 -23 0 -24 -3 -27 -67 -4 -86 -22 -85 -26 2 -3 65 -3 65 -32 65
-17 0 -30 5 -30 10 0 6 30 10 70 10 40 0 70 -4 70 -10z m360 -10 c13 -13 20
-33 20 -60 0 -51 -29 -72 -102 -74 l-53 -1 -3 78 -3 77 61 0 c47 0 64 -4 80
-20z m350 -10 c0 -29 2 -30 46 -30 46 0 46 0 42 30 -4 24 -1 30 14 30 17 0 19
-7 16 -77 -2 -61 -6 -78 -18 -78 -11 0 -14 9 -12 33 3 32 3 32 -42 32 l-46 0
0 -36 c0 -24 -4 -34 -12 -32 -9 3 -14 31 -16 81 -2 64 0 77 13 77 10 0 15 -10
15 -30z m280 20 c0 -5 -20 -10 -45 -10 -38 0 -45 -3 -45 -20 0 -17 7 -20 40
-20 29 0 40 -4 40 -15 0 -11 -11 -15 -40 -15 -33 0 -40 -3 -40 -20 0 -17 7
-20 45 -20 33 0 45 -4 45 -15 0 -12 -13 -15 -60 -15 l-60 0 0 80 0 80 60 0
c33 0 60 -4 60 -10z m107 -37 l42 -48 1 48 c0 35 4 47 15 47 12 0 15 -16 15
-80 0 -44 -4 -80 -9 -80 -5 0 -29 23 -53 52 l-43 52 -5 -49 c-3 -27 -11 -50
-17 -53 -10 -3 -13 17 -13 77 0 56 4 81 12 81 7 0 31 -21 55 -47z m190 0 l42
-48 1 48 c0 35 4 47 15 47 12 0 15 -16 15 -80 0 -44 -4 -80 -8 -80 -5 0 -29
24 -53 52 l-44 53 -5 -49 c-3 -27 -11 -51 -17 -54 -10 -3 -13 17 -13 77 0 97
8 101 67 34z m241 35 c17 -17 15 -75 -3 -82 -14 -5 -14 -9 1 -31 24 -36 7 -46
-21 -12 -29 33 -62 36 -67 5 -2 -12 -9 -23 -15 -26 -10 -3 -13 17 -13 77 l0
81 53 0 c29 0 58 -5 65 -12z m82 -25 l21 -36 25 36 c14 21 31 37 40 37 11 0 8
-10 -13 -40 -14 -23 -29 -58 -32 -78 -7 -41 -38 -55 -33 -14 2 12 -10 45 -27
72 -35 57 -36 60 -17 60 8 0 24 -16 36 -37z m220 -28 l0 -65 40 0 c29 0 40 -4
40 -15 0 -12 -13 -15 -55 -15 l-55 0 0 80 c0 64 3 80 15 80 12 0 15 -14 15
-65z m135 25 c-7 -54 8 -90 38 -90 35 0 47 19 47 77 0 40 4 53 15 53 12 0 15
-13 15 -55 0 -46 -4 -60 -25 -80 -29 -30 -64 -32 -96 -6 -18 14 -23 31 -27 80
-4 57 -3 61 17 61 19 0 21 -4 16 -40z m609 -37 c19 -40 31 -75 26 -78 -5 -3
-15 3 -22 15 -19 30 -90 28 -111 -2 -31 -46 -29 -6 3 67 42 97 57 97 104 -2z
m-801 -454 c143 -22 289 -116 355 -228 34 -58 62 -163 62 -231 -1 -212 -164
-406 -381 -449 -73 -15 -194 -15 -266 -1 -141 29 -277 132 -334 253 -124 265
15 560 301 641 98 27 160 31 263 15z m-2064 -24 c185 -44 316 -169 352 -336 7
-30 9 -90 6 -137 -12 -201 -153 -350 -373 -397 -50 -11 -138 -15 -316 -15
l-248 0 0 450 0 450 258 0 c194 0 273 -4 321 -15z m1063 4 c118 -25 208 -92
252 -188 33 -72 30 -189 -7 -263 -28 -58 -78 -108 -130 -131 -15 -6 -25 -17
-23 -23 2 -6 47 -70 100 -142 53 -72 96 -134 96 -137 0 -3 -51 -5 -113 -5
l-113 0 -90 125 -89 125 -102 0 -103 0 0 -125 0 -125 -105 0 -105 0 0 450 0
450 240 0 c139 0 261 -5 292 -11z m2110 0 c79 -17 132 -43 184 -91 61 -57 85
-105 91 -192 8 -99 -15 -173 -70 -233 -81 -88 -190 -123 -389 -123 l-128 0 0
-125 0 -125 -110 0 -110 0 0 450 0 450 240 0 c140 0 261 -5 292 -11z m-195
-1157 l532 -2 3 -329 3 -329 -63 35 c-90 49 -94 47 -98 -67 -2 -52 -6 -108 -8
-125 -3 -16 -5 -38 -5 -47 -1 -17 -104 -18 -2016 -18 l-2015 0 0 445 0 445
1568 -2 c862 -2 1807 -4 2099 -6z m503 -678 c0 -2 -7 -4 -15 -4 -8 0 -15 4
-15 10 0 5 7 7 15 4 8 -4 15 -8 15 -10z m35 -24 c3 -5 -1 -10 -10 -10 -9 0
-13 5 -10 10 3 6 8 10 10 10 2 0 7 -4 10 -10z m50 -49 c-3 -6 -11 -8 -17 -5
-6 4 -5 9 3 15 16 10 23 4 14 -10z m-8 -24 c22 0 9 -22 -17 -28 -14 -4 -34
-10 -44 -14 -14 -6 -17 -5 -11 4 4 8 2 17 -6 22 -11 7 -10 9 4 9 9 0 17 5 17
11 0 6 9 8 23 3 12 -4 27 -7 34 -7z m-67 -100 c0 -13 3 -27 7 -31 4 -4 8 -22
9 -41 1 -30 -2 -33 -17 -24 -10 5 -35 13 -56 19 l-38 9 40 -1 c44 -2 65 6 65
25 0 7 -5 4 -11 -6 -14 -23 -32 -12 -19 12 5 10 7 28 5 40 -2 11 0 21 6 21 5
0 9 -10 9 -23z"/>
<path d="M9310 5615 c-20 -24 0 -76 40 -103 41 -28 106 -25 127 4 19 26 17 33
-26 75 -33 34 -45 39 -84 39 -28 0 -49 -6 -57 -15z"/>
<path d="M9412 5470 c-91 -22 -122 -45 -47 -35 68 10 215 42 222 49 13 12
-105 3 -175 -14z"/>
<path d="M6652 5103 c-7 -3 -18 -16 -23 -30 -21 -56 54 -100 94 -55 44 48 -9
110 -71 85z"/>
<path d="M7036 5094 c-23 -22 -20 -71 3 -84 29 -15 56 -12 74 8 47 52 -28 126
-77 76z"/>
<path d="M6837 5103 c-4 -3 -7 -28 -7 -55 0 -47 1 -48 31 -48 46 0 69 16 69
50 0 16 -7 36 -16 44 -15 16 -65 22 -77 9z"/>
<path d="M8020 5082 c0 -37 5 -42 38 -33 20 6 27 14 27 32 0 20 -6 25 -32 27
-30 3 -33 1 -33 -26z"/>
<path d="M9082 5065 c-11 -24 -10 -25 18 -25 28 0 29 1 18 25 -6 14 -14 25
-18 25 -4 0 -12 -11 -18 -25z"/>
<path d="M8157 4416 c-140 -52 -216 -184 -189 -329 30 -161 187 -262 354 -228
184 39 282 245 197 414 -49 98 -131 148 -249 154 -48 2 -89 -2 -113 -11z"/>
<path d="M5930 4150 c0 -148 -1 -273 -2 -277 -4 -12 208 -15 268 -4 74 14 121
38 165 83 74 76 92 218 42 319 -57 111 -145 149 -345 149 l-128 0 0 -270z"/>
<path d="M7030 4264 l0 -156 138 4 c128 3 141 5 174 28 96 65 89 204 -12 257
-38 21 -57 23 -172 23 l-128 0 0 -156z"/>
<path d="M9150 4266 l0 -156 123 0 c108 0 128 3 167 23 63 32 84 66 84 132 0
59 -17 91 -68 129 -24 18 -45 21 -167 24 l-139 4 0 -156z"/>
<path d="M5961 3198 c-127 -36 -153 -176 -43 -232 15 -7 59 -21 99 -31 75 -18
108 -41 97 -68 -15 -40 -151 -41 -211 -2 -22 15 -24 14 -43 -17 -11 -18 -20
-36 -20 -39 0 -27 103 -59 190 -59 111 0 191 55 193 134 2 66 -43 105 -152
133 -92 23 -111 33 -111 59 0 13 9 28 19 34 28 15 116 12 156 -4 35 -15 35
-15 51 15 22 43 13 56 -47 73 -58 18 -126 19 -178 4z"/>
<path d="M8042 3192 c-60 -22 -105 -60 -133 -114 -26 -51 -26 -146 1 -197 25
-50 89 -105 139 -119 86 -26 206 -5 252 44 l23 25 -30 30 -31 31 -38 -26 c-70
-48 -177 -26 -212 44 -19 37 -16 110 6 146 40 65 147 83 213 34 l30 -22 31 30
c26 27 29 33 17 47 -47 56 -178 79 -268 47z"/>
<path d="M9266 3190 c-95 -37 -145 -111 -146 -213 0 -71 24 -121 80 -170 22
-19 61 -40 85 -47 64 -18 170 -9 228 19 l47 23 0 94 0 94 -50 0 -50 0 0 -65
c0 -61 -2 -66 -26 -75 -65 -25 -160 5 -189 60 -36 69 -9 157 59 190 56 26 92
25 152 -5 l49 -25 30 31 30 30 -34 29 c-60 51 -176 65 -265 30z"/>
<path d="M6292 2978 l3 -222 175 0 175 0 3 42 3 42 -125 0 -126 0 0 50 0 49
108 3 107 3 3 37 3 37 -108 3 -108 3 -3 47 -3 47 122 3 123 3 0 35 0 35 -177
3 -177 2 2 -222z"/>
<path d="M6738 2985 c-2 -119 -1 -221 2 -225 3 -4 26 -6 53 -3 l47 6 0 58 0
59 50 0 c49 0 50 -1 91 -57 23 -32 44 -60 46 -63 2 -2 29 -5 59 -6 65 -2 65 0
2 82 l-42 56 32 27 c32 27 62 84 62 120 0 45 -33 103 -74 129 -39 25 -49 27
-183 30 l-142 4 -3 -217z m269 100 c29 -33 29 -57 0 -91 -21 -25 -31 -27 -93
-28 l-69 -1 -3 64 c-4 94 -3 95 75 88 57 -4 71 -9 90 -32z"/>
<path d="M7163 3188 c54 -126 192 -425 199 -429 6 -4 31 -5 56 -4 l47 2 97
214 c53 118 97 217 97 222 1 4 -23 7 -52 7 l-52 0 -69 -156 c-42 -92 -72 -150
-77 -142 -3 7 -35 77 -69 156 l-63 142 -60 0 c-43 0 -58 -3 -54 -12z"/>
<path d="M7702 2978 l3 -223 50 0 50 0 3 223 2 222 -55 0 -55 0 2 -222z"/>
<path d="M8402 2978 l3 -223 50 0 50 0 3 223 2 222 -55 0 -55 0 2 -222z"/>
<path d="M8612 2978 l3 -223 50 0 50 0 5 132 5 131 115 -134 114 -135 41 3 40
3 3 223 2 222 -55 0 -54 0 -3 -130 -3 -130 -110 130 -110 130 -48 0 -47 0 2
-222z"/>
<path d="M7300 6579 c12 -8 9 -9 -12 -5 -21 5 -26 3 -22 -7 3 -8 14 -12 28
-10 13 3 28 -2 35 -11 8 -9 19 -16 25 -16 6 1 0 10 -13 20 l-23 20 47 -2 c31
-2 49 1 52 10 4 9 -13 12 -64 12 -51 0 -64 -3 -53 -11z"/>
</g>
</svg>
