<svg xmlns="http://www.w3.org/2000/svg" xmlns:xlink="http://www.w3.org/1999/xlink" width="1547" height="764" viewBox="0 0 1547 764">
  <defs>
    <style>
      .cls-1 {
        fill: #ffa800;
      }

      .cls-1, .cls-2 {
        stroke: #000;
        stroke-width: 1px;
        fill-rule: evenodd;
      }

      .cls-2 {
        fill: #fff;
        filter: url(#filter);
      }
    </style>
    <filter id="filter" x="79" y="252" width="1390" height="380" filterUnits="userSpaceOnUse">
      <feGaussianBlur result="blur" stdDeviation="5.333" in="SourceAlpha"/>
      <feComposite result="composite"/>
      <feComposite result="composite-2"/>
      <feComposite result="composite-3"/>
      <feFlood result="flood" flood-color="#ffa800" flood-opacity="0.4"/>
      <feComposite result="composite-4" operator="in" in2="composite-3"/>
      <feBlend result="blend" in2="SourceGraphic"/>
      <feBlend result="blend-2" in="SourceGraphic"/>
      <feGaussianBlur result="blur-2" stdDeviation="0.667" in="SourceAlpha"/>
      <feFlood result="flood-2" flood-color="#ffa800"/>
      <feComposite result="composite-6" operator="out" in2="blur-2"/>
      <feComposite result="composite-5" operator="in" in2="SourceAlpha"/>
      <feBlend result="blend-3" in2="blend-2"/>
    </filter>
  </defs>
  <path id="PROJETO" class="cls-1" d="M517.512,117.894q0.009,4.893-3.456,7.153t-9.715,2.272l-16.457.029-0.032-18.465,16.456-.028q6.251-.012,9.723,2.067t3.481,6.972h0Zm18.143-.117q-0.018-10.168-7.741-15t-20.7-4.814l-37.524.066,0.11,62.711,18.143-.032-0.04-22.549,18.2-.031q14.242-.025,21.908-4.634t7.647-15.712h0Zm60.334-9.083a24.394,24.394,0,0,1,8.448,1.091q5.014,1.949,5.025,7.65,0.009,5.275-5.168,7.071a28.377,28.377,0,0,1-8.782,1.037l-19.652.034-0.03-16.848Zm3.777-10.9-41.8.073,0.11,62.711,17.846-.031-0.043-24.591,17.835-.031q7.626-.013,10.407,1.981t2.9,7.994l0.129,5.828a22.5,22.5,0,0,0,.78,5.4,34.7,34.7,0,0,0,1.192,3.359l20.158-.035,0-1.574a5.578,5.578,0,0,1-3.378-3.568,22.954,22.954,0,0,1-.492-5.828l-0.007-4.212q-0.012-6.594-2.537-9.8t-8.576-4.942q7.228-1.8,10.365-6.123a14.816,14.816,0,0,0,3.127-8.791,13.287,13.287,0,0,0-1.631-6.592,19.568,19.568,0,0,0-4.4-5.268,22.511,22.511,0,0,0-8.189-4.368q-4.83-1.48-13.791-1.593h0Zm91.508,53.191q-10.849.02-17.323-5.713t-6.491-16.326q-0.018-10.595,6.434-16.349t17.3-5.774q10.849-.018,17.233,5.735t6.4,16.305q0.019,10.593-6.345,16.348t-17.213,5.774h0Zm41.819-22.154q-0.03-17.23-13.266-25.844-9.915-7.3-28.65-7.268t-28.624,7.368q-13.266,8.661-13.235,25.891,0.03,16.89,13.326,25.844,9.914,7.3,28.649,7.267t28.624-7.367q13.2-9,13.176-25.891h0Zm14.651,7.632,0,1.447q0.019,11.063,5.711,17.455t22.331,6.364q16.637-.03,23-7.954,3.761-4.686,3.746-12.685l-0.076-43.651-18.261.032,0.077,43.864q0.008,4.553-1.158,6.469-1.944,3.237-8.014,3.247-6.127.011-8-2.943T765,137.882l0-1.447ZM893.7,97.281l-64.092.112,0.11,62.712,66.226-.116-0.02-11.275-48.38.085-0.028-16.125,42.451-.074-0.019-10.892-42.451.075-0.023-13.317,46.245-.081Zm16.357-.029,0.019,11.1,26.265-.046,0.091,51.607,18.379-.032-0.09-51.608,26.146-.045-0.019-11.1Zm125.365,53.132q-10.845.02-17.32-5.713t-6.49-16.326q-0.03-10.593,6.43-16.349t17.3-5.773q10.845-.02,17.24,5.734,6.375,5.756,6.4,16.305,0.015,10.594-6.35,16.349t-17.21,5.773h0Zm41.82-22.154q-0.03-17.23-13.27-25.844-9.915-7.3-28.65-7.268t-28.62,7.368q-13.269,8.661-13.237,25.891,0.03,16.89,13.327,25.844,9.915,7.3,28.65,7.268t28.62-7.368q13.215-9,13.18-25.891h0Z"/>
  <g style="fill: #fff; filter: url(#filter)">
    <path id="DROP_SERVICER" data-name="DROP SERVICER" class="cls-2" d="M94.716,606.759h46.417c36.345,0,53.276-64.413,53.276-165.9,0-83.413-12.261-164.971-47-164.971H94.716V606.759Zm32.112-246.067h10.218c23.208,0,25.251,57.925,25.251,78.779,0,31.047-2.919,82.485-22.916,82.485H126.828V360.692Zm90.207,246.067h32.112V491.372h17.078c12.7,0,13.575,32.9,14.45,64.412,0.438,17.146,1.022,34.292,2.628,50.975h32.112c-2.92-15.293-3.065-54.682-3.5-70.9-1.168-41.243-6.569-71.827-15.327-82.485,10.656-12.512,15.619-48.658,15.619-82.949,0-62.56-15.764-94.534-34.01-94.534H217.035V606.759Zm32.112-252.091h15.035c12.261,0,15.91,12.048,15.91,32.9,0,29.657-8.174,32.9-14.159,32.9H249.147v-65.8Zm81.741,86.656c0,101.022,21.165,173.312,52.839,173.312s52.839-72.29,52.839-173.312S415.4,268.012,383.727,268.012,330.888,340.3,330.888,441.324Zm32.112,0c0-73.681,12.553-90.827,20.727-90.827s20.727,17.146,20.727,90.827-12.553,90.827-20.727,90.827S363,515.005,363,441.324Zm95.9,165.435H491.01v-100.1h18.976c23.938,0,40.869-37.536,40.869-117.7,0-47.267-9.925-113.07-38.242-113.07H458.9V606.759ZM491.01,360.692h14.305c7.882,0,15.18,1.854,15.18,31.975,0,33.365-8.758,35.219-17.078,35.219H491.01V360.692Zm130.347,134.85c0.292,105.656,34.01,119.094,45.833,119.094,23.208,0,48.168-27.8,48.168-114,0-60.706-14.6-82.486-29.339-95.461s-29.63-18.073-30.214-41.706c0-18.536,7.152-22.244,11.531-22.244,3.211,0,6.86,2.317,9.487,8.342,2.628,5.56,4.379,13.9,3.8,26.414h30.36c-0.876-80.632-20.873-107.973-43.5-107.973-21.457,0-42.038,32.9-42.038,109.363,0,66.73,18.83,81.1,35.323,95.924,17.954,16.219,22.479,20.853,22.479,38,0,24.56-8.028,30.121-13.283,30.121-5.984,0-12.991-4.171-15.326-24.1a184.924,184.924,0,0,1-1.168-21.78H621.357ZM734.041,606.759h87.871v-84.8H766.153V480.713h49.19V401.935h-49.19V360.692h54.153v-84.8H734.041V606.759Zm111.517,0H877.67V491.372h17.078c12.7,0,13.575,32.9,14.451,64.412,0.437,17.146,1.021,34.292,2.627,50.975h32.112c-2.919-15.293-3.065-54.682-3.5-70.9-1.168-41.243-6.569-71.827-15.326-82.485,10.655-12.512,15.618-48.658,15.618-82.949,0-62.56-15.764-94.534-34.01-94.534H845.558V606.759ZM877.67,354.668h15.035c12.261,0,15.91,12.048,15.91,32.9,0,29.657-8.174,32.9-14.159,32.9H877.67v-65.8Zm172.97-78.778h-32.99l-16.78,200.653h-0.3L983.5,275.89h-32.4l31.09,330.869h35.908Zm14.6,330.869h32.11V275.89h-32.11V606.759Zm154.28-207.6c-2.77-82.949-18.54-130.68-47.15-131.143-32.11,0-52.84,69.047-52.84,173.312,0,97.778,19.13,173.312,52.84,173.312,30.51,0,47.59-70.9,47.59-137.63h-31.53c-1.9,31.048-6.13,55.145-16.93,55.145-15.04,0-19.85-46.34-19.85-90.827s4.81-90.827,19.85-90.827c13.28,0,16.2,36.609,16.78,48.658h31.24Zm22.62,207.6h87.87v-84.8h-55.75V480.713h49.18V401.935h-49.18V360.692h54.15v-84.8h-86.27V606.759Zm111.52,0h32.11V491.372h17.08c12.7,0,13.57,32.9,14.45,64.412,0.44,17.146,1.02,34.292,2.63,50.975h32.11c-2.92-15.293-3.07-54.682-3.5-70.9-1.17-41.243-6.57-71.827-15.33-82.485,10.66-12.512,15.62-48.658,15.62-82.949,0-62.56-15.77-94.534-34.01-94.534h-61.16V606.759Zm32.11-252.091h15.04c12.26,0,15.91,12.048,15.91,32.9,0,29.657-8.18,32.9-14.16,32.9h-16.79v-65.8Z" style="stroke: inherit; filter: none; fill: inherit"/>
  </g>
  <use xlink:href="#DROP_SERVICER" style="stroke: #000; filter: none; fill: none"/>
</svg>
