<svg width="33" height="33" viewBox="0 0 33 33" fill="none" xmlns="http://www.w3.org/2000/svg">
<path fill-rule="evenodd" clip-rule="evenodd" d="M25.0305 7.9227C22.7672 5.65808 19.7573 4.40958 16.5508 4.4082C9.9412 4.4082 4.56357 9.78308 4.5622 16.39C4.55945 18.4923 5.11082 20.559 6.16132 22.3808L4.46045 28.5903L10.8157 26.9238C12.5743 27.8808 14.5433 28.3827 16.5453 28.3827H16.5508C23.1577 28.3827 28.5353 23.0065 28.5381 16.3996C28.5395 13.1986 27.2937 10.1887 25.0305 7.9227Z" stroke="#F7F7F7" stroke-width="1.5" stroke-linecap="round" stroke-linejoin="round"/>
<path d="M18.0059 18.6454L18.5641 18.0912C19.077 17.5825 19.8882 17.5179 20.4795 17.9331C21.0515 18.3346 21.5685 18.6949 22.0497 19.0304C22.8142 19.5611 22.9064 20.6501 22.2477 21.3074L21.7541 21.801" stroke="#F7F7F7" stroke-width="1.5" stroke-linecap="round" stroke-linejoin="round"/>
<path d="M11.1997 11.2463L11.6933 10.7527C12.3506 10.0954 13.4396 10.1875 13.9703 10.9507C14.3045 11.4319 14.6647 11.9489 15.0676 12.5209C15.4828 13.1122 15.4196 13.9234 14.9095 14.4363L14.3553 14.9945" stroke="#F7F7F7" stroke-width="1.5" stroke-linecap="round" stroke-linejoin="round"/>
<path d="M21.7539 21.8008C19.7175 23.8276 16.2951 22.1061 13.5933 19.4028" stroke="#F7F7F7" stroke-width="1.5" stroke-linecap="round" stroke-linejoin="round"/>
<path d="M13.5961 19.4067C10.8942 16.7035 9.17272 13.2825 11.1995 11.2461" stroke="#F7F7F7" stroke-width="1.5" stroke-linecap="round" stroke-linejoin="round"/>
<path d="M14.355 14.9946C14.7936 15.6863 15.356 16.371 15.9912 17.0063L15.994 17.009C16.6292 17.6443 17.314 18.2066 18.0056 18.6453" stroke="#F7F7F7" stroke-width="1.5" stroke-linecap="round" stroke-linejoin="round"/>
</svg>
